<?xml version="1.0" encoding="utf-8"?>
<!-- Generator: Adobe Illustrator 21.1.0, SVG Export Plug-In . SVG Version: 6.00 Build 0)  -->
<svg version="1.1" id="Camada_1" xmlns="http://www.w3.org/2000/svg" xmlns:xlink="http://www.w3.org/1999/xlink" x="0px" y="0px"
	 viewBox="0 0 156 31.2" enable-background="new 0 0 156 31.2" xml:space="preserve">
<g>
	
		<path fill-rule="evenodd" clip-rule="evenodd" fill="#24246A" stroke="#24246A" stroke-width="0.2398" stroke-miterlimit="22.9256" d="
		M41.1,17.6h-2.5l2.5-11.9h5.3c0.9,0,1.6,0.1,2.1,0.3c0.5,0.2,0.9,0.5,1.2,1c0.3,0.5,0.5,1.1,0.5,1.8c0,1-0.3,1.9-0.9,2.5
		c-0.6,0.7-1.5,1.1-2.8,1.2c0.3,0.3,0.6,0.7,0.9,1.1c0.5,0.9,1.2,2.3,1.8,4h-2.6c-0.2-0.7-0.6-1.7-1.2-3.1c-0.3-0.8-0.7-1.3-1.1-1.6
		c-0.2-0.2-0.6-0.2-1.2-0.2h-1L41.1,17.6L41.1,17.6z M42.5,10.9h1.3c1.3,0,2.2-0.1,2.6-0.2c0.4-0.2,0.8-0.4,1-0.7
		c0.2-0.3,0.4-0.7,0.4-1.1c0-0.4-0.2-0.8-0.5-1c-0.2-0.1-0.7-0.2-1.4-0.2h-2.7L42.5,10.9L42.5,10.9z M50.7,17.6l2.5-11.9H62l-0.4,2
		h-6.4l-0.6,2.7h6.2l-0.4,2h-6.2l-0.7,3.2h6.9l-0.4,2H50.7L50.7,17.6z M69.6,15l0.4,2.6h2.3L70.4,5.7h-2.8l-6.7,11.9h2.5l1.4-2.6
		H69.6L69.6,15z M69.3,13H66l2.6-4.8L69.3,13L69.3,13z M73.9,17.6l2.5-11.9h2.4l-2.1,9.9h6.1l-0.4,2H73.9L73.9,17.6z M86.4,17.6H84
		l2.5-11.9h4.8c0.9,0,1.5,0.1,2,0.3c0.5,0.2,0.9,0.5,1.2,1C94.9,7.5,95,8,95,8.7c0,0.6-0.1,1.2-0.4,1.8c-0.2,0.6-0.5,1-0.9,1.4
		c-0.3,0.3-0.7,0.6-1.1,0.8c-0.4,0.2-0.9,0.3-1.6,0.4c-0.4,0.1-1.1,0.1-2.2,0.1h-1.6L86.4,17.6L86.4,17.6z M87.8,11.1h0.8
		c1.3,0,2.2-0.1,2.6-0.2c0.4-0.2,0.8-0.4,1-0.8c0.2-0.4,0.4-0.7,0.4-1.2c0-0.3-0.1-0.5-0.2-0.7c-0.1-0.2-0.3-0.3-0.5-0.4
		c-0.2-0.1-0.7-0.1-1.5-0.1h-1.8L87.8,11.1L87.8,11.1z M95.9,13c0-0.7,0.1-1.5,0.3-2.2c0.3-1.1,0.7-2,1.3-2.7
		c0.6-0.8,1.3-1.4,2.1-1.8c0.9-0.4,1.8-0.7,2.9-0.7c1.5,0,2.7,0.5,3.6,1.4c0.9,0.9,1.4,2.1,1.4,3.7c0,1.3-0.3,2.5-0.9,3.7
		c-0.6,1.2-1.4,2.1-2.4,2.7c-1,0.6-2.2,1-3.4,1c-1.1,0-2-0.3-2.8-0.8c-0.8-0.5-1.3-1.1-1.6-1.9C96,14.5,95.9,13.7,95.9,13L95.9,13z
		 M98.3,12.9c0,0.8,0.2,1.5,0.7,2.1c0.5,0.6,1.2,0.8,2,0.8c0.7,0,1.3-0.2,1.9-0.7c0.6-0.4,1.1-1.1,1.5-2c0.4-0.9,0.6-1.8,0.6-2.6
		c0-0.9-0.3-1.7-0.8-2.2c-0.5-0.5-1.1-0.8-1.9-0.8c-1.2,0-2.2,0.6-2.9,1.7C98.7,10.3,98.3,11.6,98.3,12.9L98.3,12.9z M117.6,17.6
		h-2.3l-3.2-8l-1.7,8h-2.3l2.5-11.9h2.3l3.2,8l1.7-8h2.3L117.6,17.6L117.6,17.6z M125.3,17.6h-2.5l2.1-9.9h-3.5l0.4-2h9.4l-0.4,2
		h-3.4L125.3,17.6L125.3,17.6z M130.8,13c0,0.8,0.2,1.5,0.5,2.3c0.3,0.7,0.8,1.4,1.6,1.9c0.8,0.5,1.7,0.8,2.8,0.8
		c1.3,0,2.4-0.3,3.4-1c1-0.6,1.8-1.5,2.4-2.7c0.6-1.2,0.9-2.4,0.9-3.7c0-1.5-0.5-2.7-1.4-3.7c-0.9-0.9-2.1-1.4-3.6-1.4
		c-1.1,0-2.1,0.2-2.9,0.7c-0.9,0.5-1.6,1.1-2.1,1.8c-0.6,0.8-1,1.7-1.3,2.7C130.9,11.5,130.8,12.2,130.8,13L130.8,13z M133.2,12.9
		c0-1.3,0.4-2.6,1.1-3.7c0.8-1.1,1.7-1.7,2.9-1.7c0.8,0,1.4,0.3,1.9,0.8c0.5,0.5,0.8,1.3,0.8,2.2c0,0.8-0.2,1.7-0.6,2.6
		c-0.4,0.9-0.9,1.6-1.5,2c-0.6,0.4-1.2,0.7-1.9,0.7c-0.8,0-1.5-0.3-2-0.8C133.4,14.4,133.2,13.7,133.2,12.9z"/>
	
		<path fill-rule="evenodd" clip-rule="evenodd" fill="#24246A" stroke="#24246A" stroke-width="0.2398" stroke-miterlimit="22.9256" d="
		M37.9,23c0-1,0.3-1.8,0.8-2.3c0.5-0.6,1.2-0.8,2.1-0.8c0.6,0,1,0.1,1.5,0.4c0.4,0.3,0.8,0.6,1,1.1c0.2,0.5,0.3,1,0.3,1.6
		c0,0.6-0.1,1.1-0.4,1.6c-0.2,0.5-0.6,0.8-1,1.1c-0.4,0.2-0.9,0.4-1.5,0.4c-0.6,0-1.1-0.1-1.5-0.4c-0.4-0.3-0.8-0.6-1-1.1
		C38.1,24.1,37.9,23.6,37.9,23L37.9,23z M38.8,23.1c0,0.7,0.2,1.3,0.6,1.7c0.4,0.4,0.9,0.6,1.5,0.6c0.6,0,1.1-0.2,1.5-0.6
		c0.4-0.4,0.6-1,0.6-1.8c0-0.5-0.1-0.9-0.2-1.3c-0.2-0.4-0.4-0.6-0.7-0.8c-0.3-0.2-0.7-0.3-1.1-0.3c-0.6,0-1,0.2-1.4,0.6
		C39,21.5,38.8,22.2,38.8,23.1L38.8,23.1z M47,25.9v-6h2.3c0.4,0,0.7,0,0.9,0.1c0.3,0,0.5,0.1,0.7,0.3c0.2,0.1,0.4,0.3,0.5,0.6
		c0.1,0.2,0.2,0.5,0.2,0.8c0,0.5-0.2,0.9-0.5,1.3c-0.3,0.4-0.9,0.5-1.8,0.5h-1.5v2.4H47L47,25.9z M47.8,22.8h1.5
		c0.5,0,0.9-0.1,1.1-0.3c0.2-0.2,0.3-0.5,0.3-0.8c0-0.2-0.1-0.5-0.2-0.6c-0.1-0.2-0.3-0.3-0.5-0.4c-0.1,0-0.4-0.1-0.7-0.1h-1.5V22.8
		L47.8,22.8z M52.3,23c0-1,0.3-1.8,0.8-2.3c0.5-0.6,1.2-0.8,2.1-0.8c0.6,0,1,0.1,1.5,0.4c0.4,0.3,0.8,0.6,1,1.1
		c0.2,0.5,0.3,1,0.3,1.6c0,0.6-0.1,1.1-0.4,1.6c-0.2,0.5-0.6,0.8-1,1.1c-0.4,0.2-0.9,0.4-1.4,0.4c-0.6,0-1.1-0.1-1.5-0.4
		c-0.4-0.3-0.8-0.6-1-1.1C52.4,24.1,52.3,23.6,52.3,23L52.3,23z M53.1,23.1c0,0.7,0.2,1.3,0.6,1.7c0.4,0.4,0.9,0.6,1.5,0.6
		c0.6,0,1.1-0.2,1.5-0.6c0.4-0.4,0.6-1,0.6-1.8c0-0.5-0.1-0.9-0.2-1.3c-0.2-0.4-0.4-0.6-0.7-0.8c-0.3-0.2-0.7-0.3-1.1-0.3
		c-0.6,0-1,0.2-1.4,0.6C53.3,21.5,53.1,22.2,53.1,23.1L53.1,23.1z M59,25.9v-6h0.8l3.1,4.7V20h0.8v6h-0.8l-3.1-4.7v4.7H59L59,25.9z
		 M66.5,25.9v-5.3h-2V20h4.7v0.7h-2v5.3H66.5L66.5,25.9z M69.7,23c0-1,0.3-1.8,0.8-2.3c0.5-0.6,1.2-0.8,2.1-0.8c0.6,0,1,0.1,1.5,0.4
		c0.4,0.3,0.8,0.6,1,1.1c0.2,0.5,0.3,1,0.3,1.6c0,0.6-0.1,1.1-0.4,1.6c-0.2,0.5-0.6,0.8-1,1.1c-0.4,0.2-0.9,0.4-1.5,0.4
		c-0.6,0-1.1-0.1-1.5-0.4c-0.4-0.3-0.8-0.6-1-1.1C69.8,24.1,69.7,23.6,69.7,23L69.7,23z M70.5,23.1c0,0.7,0.2,1.3,0.6,1.7
		c0.4,0.4,0.9,0.6,1.5,0.6c0.6,0,1.1-0.2,1.5-0.6c0.4-0.4,0.6-1,0.6-1.8c0-0.5-0.1-0.9-0.2-1.3c-0.2-0.4-0.4-0.6-0.7-0.8
		c-0.3-0.2-0.7-0.3-1.1-0.3c-0.6,0-1,0.2-1.4,0.6C70.7,21.5,70.5,22.2,70.5,23.1L70.5,23.1z M78.5,24l0.7-0.1c0,0.3,0.1,0.5,0.2,0.7
		c0.1,0.2,0.3,0.3,0.6,0.5c0.3,0.1,0.6,0.2,0.9,0.2c0.3,0,0.6,0,0.8-0.1c0.2-0.1,0.4-0.2,0.5-0.4c0.1-0.2,0.2-0.3,0.2-0.5
		c0-0.2-0.1-0.3-0.2-0.5c-0.1-0.1-0.3-0.3-0.5-0.4c-0.2-0.1-0.5-0.2-1.1-0.3c-0.5-0.1-0.9-0.3-1.2-0.4c-0.3-0.1-0.5-0.3-0.6-0.6
		c-0.1-0.2-0.2-0.5-0.2-0.7c0-0.3,0.1-0.6,0.3-0.8c0.2-0.3,0.4-0.5,0.7-0.6c0.3-0.1,0.7-0.2,1.1-0.2c0.4,0,0.8,0.1,1.2,0.2
		c0.3,0.1,0.6,0.4,0.8,0.6c0.2,0.3,0.3,0.6,0.3,0.9l-0.8,0.1c0-0.4-0.2-0.7-0.4-0.9c-0.2-0.2-0.6-0.3-1-0.3c-0.5,0-0.8,0.1-1,0.3
		c-0.2,0.2-0.3,0.4-0.3,0.6c0,0.2,0.1,0.4,0.2,0.5c0.2,0.1,0.5,0.3,1.2,0.4c0.6,0.1,1.1,0.3,1.3,0.4c0.3,0.2,0.6,0.4,0.8,0.6
		c0.2,0.2,0.2,0.5,0.2,0.8c0,0.3-0.1,0.6-0.3,0.9c-0.2,0.3-0.4,0.5-0.8,0.7C81.9,26,81.5,26,81,26c-0.5,0-1-0.1-1.4-0.2
		c-0.4-0.2-0.7-0.4-0.9-0.7C78.6,24.8,78.5,24.4,78.5,24L78.5,24z M84.1,23c0-1,0.3-1.8,0.8-2.3c0.5-0.6,1.2-0.8,2.1-0.8
		c0.6,0,1,0.1,1.5,0.4c0.4,0.3,0.8,0.6,1,1.1c0.2,0.5,0.3,1,0.3,1.6c0,0.6-0.1,1.1-0.4,1.6c-0.2,0.5-0.6,0.8-1,1.1
		c-0.4,0.2-0.9,0.4-1.5,0.4c-0.6,0-1.1-0.1-1.5-0.4c-0.4-0.3-0.8-0.6-1-1.1C84.2,24.1,84.1,23.6,84.1,23L84.1,23z M84.9,23.1
		c0,0.7,0.2,1.3,0.6,1.7c0.4,0.4,0.9,0.6,1.5,0.6c0.6,0,1.1-0.2,1.5-0.6c0.4-0.4,0.6-1,0.6-1.8c0-0.5-0.1-0.9-0.2-1.3
		c-0.2-0.4-0.4-0.6-0.7-0.8c-0.3-0.2-0.7-0.3-1.1-0.3c-0.6,0-1,0.2-1.4,0.6C85.1,21.5,84.9,22.2,84.9,23.1L84.9,23.1z M90.8,25.9v-6
		H93c0.5,0,0.8,0.1,1.1,0.2c0.3,0.1,0.5,0.3,0.6,0.6c0.2,0.2,0.2,0.5,0.2,0.8c0,0.3-0.1,0.5-0.2,0.7c-0.1,0.2-0.3,0.4-0.6,0.5
		c0.4,0.1,0.6,0.3,0.8,0.5c0.2,0.3,0.3,0.6,0.3,0.9c0,0.3-0.1,0.5-0.2,0.8c-0.1,0.2-0.3,0.4-0.4,0.6c-0.2,0.1-0.4,0.2-0.7,0.3
		c-0.3,0.1-0.6,0.1-1,0.1H90.8L90.8,25.9z M91.6,22.5h1.3c0.4,0,0.6,0,0.8-0.1c0.2-0.1,0.4-0.2,0.5-0.3c0.1-0.1,0.2-0.3,0.2-0.5
		c0-0.2,0-0.4-0.1-0.5c-0.1-0.2-0.2-0.3-0.4-0.3c-0.2-0.1-0.5-0.1-0.9-0.1h-1.2V22.5L91.6,22.5z M91.6,25.2h1.5c0.3,0,0.4,0,0.5,0
		c0.2,0,0.3-0.1,0.5-0.2c0.1-0.1,0.2-0.2,0.3-0.3c0.1-0.1,0.1-0.3,0.1-0.5c0-0.2-0.1-0.4-0.2-0.6c-0.1-0.2-0.3-0.3-0.5-0.3
		c-0.2-0.1-0.5-0.1-0.9-0.1h-1.4V25.2L91.6,25.2z M102.9,23.8l0.8,0.2c-0.2,0.6-0.5,1.1-0.9,1.5c-0.4,0.3-1,0.5-1.6,0.5
		c-0.6,0-1.2-0.1-1.6-0.4c-0.4-0.3-0.7-0.6-0.9-1.1c-0.2-0.5-0.3-1-0.3-1.6c0-0.6,0.1-1.2,0.4-1.6c0.2-0.5,0.6-0.8,1-1.1
		c0.4-0.2,0.9-0.4,1.4-0.4c0.6,0,1.1,0.2,1.5,0.5c0.4,0.3,0.7,0.7,0.8,1.3l-0.8,0.2c-0.1-0.4-0.3-0.7-0.6-0.9
		c-0.3-0.2-0.6-0.3-1-0.3c-0.5,0-0.8,0.1-1.1,0.3c-0.3,0.2-0.5,0.5-0.6,0.9c-0.1,0.4-0.2,0.8-0.2,1.1c0,0.5,0.1,1,0.2,1.3
		c0.1,0.4,0.4,0.7,0.7,0.8c0.3,0.2,0.6,0.3,1,0.3c0.4,0,0.8-0.1,1.1-0.4C102.6,24.7,102.8,24.4,102.9,23.8L102.9,23.8z M104.5,23
		c0-1,0.3-1.8,0.8-2.3c0.5-0.6,1.2-0.8,2.1-0.8c0.6,0,1,0.1,1.5,0.4c0.4,0.3,0.8,0.6,1,1.1c0.2,0.5,0.3,1,0.3,1.6
		c0,0.6-0.1,1.1-0.4,1.6c-0.2,0.5-0.6,0.8-1,1.1c-0.4,0.2-0.9,0.4-1.5,0.4c-0.6,0-1.1-0.1-1.5-0.4c-0.4-0.3-0.8-0.6-1-1.1
		C104.6,24.1,104.5,23.6,104.5,23L104.5,23z M105.3,23.1c0,0.7,0.2,1.3,0.6,1.7c0.4,0.4,0.9,0.6,1.5,0.6c0.6,0,1.1-0.2,1.5-0.6
		c0.4-0.4,0.6-1,0.6-1.8c0-0.5-0.1-0.9-0.2-1.3c-0.2-0.4-0.4-0.6-0.7-0.8c-0.3-0.2-0.7-0.3-1.1-0.3c-0.6,0-1,0.2-1.4,0.6
		C105.5,21.5,105.3,22.2,105.3,23.1L105.3,23.1z M111.2,25.9v-6h0.8l3.1,4.7V20h0.8v6h-0.8l-3.1-4.7v4.7H111.2L111.2,25.9z
		 M118.7,25.9v-5.3h-2V20h4.7v0.7h-2v5.3H118.7L118.7,25.9z M122.3,25.9v-6h2.6c0.5,0,0.9,0.1,1.2,0.2c0.3,0.1,0.5,0.3,0.7,0.6
		c0.2,0.3,0.2,0.6,0.2,0.9c0,0.4-0.1,0.8-0.4,1.1c-0.3,0.3-0.7,0.5-1.3,0.6c0.2,0.1,0.4,0.2,0.5,0.3c0.2,0.2,0.4,0.5,0.7,0.8l1,1.6
		h-1l-0.8-1.2c-0.2-0.4-0.4-0.6-0.6-0.8c-0.2-0.2-0.3-0.3-0.4-0.4c-0.1-0.1-0.2-0.1-0.4-0.2c-0.1,0-0.2,0-0.4,0h-0.9v2.6H122.3
		L122.3,25.9z M123.1,22.6h1.7c0.4,0,0.6,0,0.8-0.1c0.2-0.1,0.4-0.2,0.5-0.4c0.1-0.2,0.2-0.3,0.2-0.5c0-0.3-0.1-0.5-0.3-0.7
		c-0.2-0.2-0.5-0.3-1-0.3h-1.9V22.6L123.1,22.6z M128.1,23c0-1,0.3-1.8,0.8-2.3c0.5-0.6,1.2-0.8,2.1-0.8c0.6,0,1,0.1,1.5,0.4
		c0.4,0.3,0.8,0.6,1,1.1c0.2,0.5,0.3,1,0.3,1.6c0,0.6-0.1,1.1-0.4,1.6c-0.2,0.5-0.6,0.8-1,1.1c-0.4,0.2-0.9,0.4-1.4,0.4
		c-0.6,0-1.1-0.1-1.5-0.4c-0.4-0.3-0.8-0.6-1-1.1C128.2,24.1,128.1,23.6,128.1,23L128.1,23z M128.9,23.1c0,0.7,0.2,1.3,0.6,1.7
		c0.4,0.4,0.9,0.6,1.5,0.6c0.6,0,1.1-0.2,1.5-0.6c0.4-0.4,0.6-1,0.6-1.8c0-0.5-0.1-0.9-0.2-1.3c-0.2-0.4-0.4-0.6-0.7-0.8
		c-0.3-0.2-0.7-0.3-1.1-0.3c-0.6,0-1,0.2-1.4,0.6C129.1,21.5,128.9,22.2,128.9,23.1L128.9,23.1z M134.8,25.9v-6h0.8v5.3h2.9v0.7
		H134.8L134.8,25.9z M139.4,25.9v-6h4.3v0.7h-3.5v1.8h3.3v0.7h-3.3v2h3.7v0.7H139.4z"/>
	<path fill-rule="evenodd" clip-rule="evenodd" fill="none" stroke="#D41F26" stroke-width="0.5" stroke-miterlimit="22.9256" d="
		M26.5,3.7c0.1,0,0.3,0,0.4,0c0.2,0,0.4,0,0.7,0c2.6,0,4.5,0.6,5.8,1.7c1.2,1.1,1.8,2.9,1.8,5.2c0,2.4-0.6,4.1-1.9,5.3
		c-1.2,1.1-3.2,1.7-5.7,1.7c-0.3,0-0.5,0-0.7,0c-0.2,0-0.3,0-0.4,0V3.7L26.5,3.7z M16,27.6V3.7h8.5v23.8H16z"/>
	
		<path fill-rule="evenodd" clip-rule="evenodd" fill="none" stroke="#D41F26" stroke-width="1.1205" stroke-miterlimit="22.9256" d="
		M26.5,3.7c0.1,0,0.3,0,0.4,0c0.2,0,0.4,0,0.7,0c2.6,0,4.5,0.6,5.8,1.7c1.2,1.1,1.8,2.8,1.8,5.2c0,2.4-0.6,4.1-1.9,5.2
		c-1.2,1.1-3.2,1.7-5.7,1.7c-0.3,0-0.5,0-0.7,0c-0.2,0-0.3,0-0.4,0V3.7L26.5,3.7z M16,27.3V3.7h8.5v23.6H16z"/>
	
		<line fill-rule="evenodd" clip-rule="evenodd" fill="none" stroke="#24246A" stroke-width="1.1126" stroke-miterlimit="22.9256" x1="37.8" y1="27.8" x2="144.2" y2="27.8"/>
	
		<circle fill-rule="evenodd" clip-rule="evenodd" fill="none" stroke="#D41F26" stroke-width="1.1234" stroke-miterlimit="22.9256" cx="149.4" cy="9.4" r="4.3"/>
	<path fill-rule="evenodd" clip-rule="evenodd" fill="#D41F26" d="M148.8,9.6v1.2c0,0.2,0,0.4,0,0.5c0,0.1,0.1,0.1,0.2,0.2
		c0.1,0,0.2,0.1,0.4,0.1v0.1h-2.3v-0.1c0.2,0,0.3,0,0.4-0.1c0.1,0,0.1-0.1,0.2-0.1c0-0.1,0-0.2,0-0.5V8c0-0.2,0-0.4,0-0.5
		c0-0.1-0.1-0.1-0.2-0.2c-0.1,0-0.2-0.1-0.4-0.1V7.2h2.1c0.5,0,0.9,0,1.2,0.1c0.2,0.1,0.5,0.2,0.6,0.4c0.2,0.2,0.2,0.4,0.2,0.7
		c0,0.3-0.1,0.6-0.4,0.8c-0.2,0.1-0.4,0.2-0.6,0.3l1.1,1.5c0.1,0.2,0.2,0.3,0.3,0.4c0.1,0.1,0.2,0.1,0.3,0.1v0.1h-1.4l-1.4-2H148.8
		L148.8,9.6z M148.8,7.4v1.9h0.2c0.3,0,0.5,0,0.7-0.1c0.2-0.1,0.3-0.2,0.4-0.3c0.1-0.1,0.1-0.3,0.1-0.6c0-0.3-0.1-0.6-0.2-0.7
		s-0.4-0.2-0.8-0.2H148.8z"/>
	
		<path fill-rule="evenodd" clip-rule="evenodd" fill="#D41F26" stroke="#D41F26" stroke-width="0.557" stroke-miterlimit="22.9256" d="
		M12.8,27.6V3.4c0.1,0,0.3,0,0.4,0c0.2,0,0.4,0,0.7,0c2.5,0,4.3,0.5,5.5,1.5c1.2,1,1.8,2.5,1.8,4.6c0,2-0.6,3.5-1.7,4.5
		c-0.3,0.3-0.7,0.5-1.1,0.7c0.3,0.1,0.6,0.2,0.9,0.4c1.6,1.2,2.2,3.2,2.1,5.1c-0.2,3-0.6,5,1.2,7.3H12.8L12.8,27.6z M13.6,15.5
		c-0.1,0-0.2,0-0.4,0h-0.1l0.5,0.6V15.5L13.6,15.5z M2.3,27.6V3.4h8.5v24.1H2.3z"/>
	
		<line fill-rule="evenodd" clip-rule="evenodd" fill="none" stroke="#24246A" stroke-width="1.1146" stroke-miterlimit="22.9256" x1="37.8" y1="3.8" x2="144.2" y2="3.8"/>
</g>
</svg>
